<svg width="84" height="44" viewBox="0 0 84 44" fill="none" xmlns="http://www.w3.org/2000/svg">
<mask id="path-1-outside-1_763_264" maskUnits="userSpaceOnUse" x="0" y="0" width="84" height="44" fill="black">
<rect fill="white" width="84" height="44"/>
<path d="M2 7.55556C2 4.48731 4.341 2 7.22876 2H76.7712C79.659 2 82 4.48731 82 7.55556V36.4444C82 39.5127 79.659 42 76.7712 42H7.22876C4.34099 42 2 39.5127 2 36.4444V7.55556Z"/>
<path d="M7.86152 9.18218L28.6291 9.32201L29.7714 15.059L28.5949 15.0511C27.7651 13.5524 26.8947 12.4528 25.9838 11.7522C25.0729 11.0516 24.2094 10.6291 23.3933 10.4847C22.588 10.3404 21.5319 10.2523 20.2249 10.2203L20.1071 29.9595C20.1026 30.7234 20.2135 31.3086 20.4398 31.7152C20.6662 32.1103 21.0404 32.3848 21.5624 32.5388C22.0843 32.6928 22.8136 32.7903 23.7502 32.8313L23.7445 33.7861L12.2905 33.709L12.2962 32.7542C13.244 32.7374 13.9689 32.6671 14.4707 32.5431C14.9835 32.4077 15.3664 32.1325 15.6194 31.7175C15.8834 31.291 16.0181 30.6264 16.0235 29.7237L16.14 10.1928C14.9635 10.1965 13.9388 10.3169 13.0659 10.5541C12.193 10.7797 11.4613 11.093 10.8707 11.4942C10.28 11.8953 9.78726 12.326 9.39235 12.7863C9.0084 13.2351 8.43772 13.9431 7.6803 14.9102L6.68359 14.9035L7.86152 9.18218ZM27.9369 13.0501L27.2182 10.2674L24.1464 10.2467C24.9726 10.5301 25.6621 10.8935 26.2151 11.337C26.768 11.7806 27.3419 12.3516 27.9369 13.0501ZM17.6108 29.335L17.7126 12.2694C17.7166 11.5981 17.6433 11.0941 17.4928 10.7575C17.3532 10.4209 17.082 10.2339 16.6792 10.1964L16.5615 29.9356C16.5572 30.6532 16.4721 31.2256 16.3061 31.6527C16.1402 32.0798 15.8329 32.4539 15.3844 32.775L15.7438 32.7774C16.539 32.7827 17.0471 32.52 17.2682 31.989C17.4892 31.4581 17.6034 30.5734 17.6108 29.335ZM10.895 10.1575L8.24798 10.1397L7.59313 13.0867C8.1533 12.315 8.64146 11.7454 9.0576 11.3778C9.47382 10.9986 10.0863 10.5919 10.895 10.1575Z"/>
<path d="M36.8921 18.4056L36.8172 30.9574C36.814 31.4898 36.8606 31.8952 36.957 32.1737C37.0644 32.4406 37.2593 32.6271 37.5419 32.7332C37.8354 32.8393 38.2817 32.906 38.8806 32.9332L38.8749 33.888L31.2444 33.8366L31.2501 32.8818C31.9256 32.8632 32.3948 32.7217 32.6579 32.4572C32.9318 32.1929 33.0708 31.7193 33.0748 31.0364L33.1224 23.0678C33.1253 22.5701 32.9701 22.1061 32.6568 21.6758C32.3435 21.2454 31.8987 20.9241 31.3226 20.7119L31.326 20.1564L36.2221 18.4011L36.8921 18.4056ZM33.6613 23.1235L33.6121 31.3699C33.6081 32.0412 33.3817 32.5489 32.933 32.8931C33.5322 32.8972 33.9687 32.7554 34.2428 32.4679C34.5277 32.1805 34.6722 31.7069 34.6761 31.0472L34.7247 22.905C34.7291 22.1643 34.5636 21.596 34.2283 21.2002C33.893 20.7929 33.4531 20.5873 32.9084 20.5837C32.6579 20.582 32.4563 20.5922 32.3036 20.6143C33.2156 21.1297 33.6682 21.9661 33.6613 23.1235ZM34.9327 9.93737C35.3467 9.94016 35.7327 10.0527 36.0909 10.275C36.4491 10.4858 36.7306 10.777 36.9353 11.1488C37.1401 11.5206 37.2412 11.9263 37.2385 12.3661C37.2359 12.8059 37.13 13.2161 36.9207 13.5967C36.7116 13.9656 36.4266 14.2589 36.0658 14.4763C35.705 14.6938 35.3177 14.8012 34.9037 14.7984C34.2828 14.7942 33.7505 14.5476 33.3068 14.0585C32.8631 13.5693 32.6432 12.9949 32.6471 12.3352C32.6497 11.907 32.7501 11.5084 32.9484 11.1393C33.1576 10.7588 33.4372 10.4655 33.787 10.2595C34.1478 10.042 34.5297 9.93466 34.9327 9.93737ZM35.2072 10.4948C34.5645 10.4905 34.0679 10.6492 33.7174 10.9709C33.3669 11.2926 33.1899 11.737 33.1866 12.3041C33.1833 12.8481 33.3495 13.3006 33.685 13.6617C34.0206 14.0112 34.5206 14.2055 35.1848 14.2447C34.8382 13.9067 34.584 13.6099 34.4221 13.3541C34.2603 13.0868 34.1806 12.7507 34.1831 12.3456C34.1875 11.5933 34.5289 10.9763 35.2072 10.4948Z"/>
<path d="M45.9769 18.4668L45.902 31.0186C45.8988 31.551 45.9454 31.9564 46.0418 32.2348C46.1492 32.5018 46.3441 32.6883 46.6267 32.7943C46.9202 32.9005 47.3664 32.9671 47.9654 32.9943L47.9597 33.9492L40.3292 33.8978L40.3349 32.943C41.0104 32.9244 41.4796 32.7828 41.7426 32.5184C42.0166 32.254 42.1555 31.7804 42.1596 31.0976L42.2071 23.129C42.2101 22.6313 42.0549 22.1673 41.7416 21.7369C41.4282 21.3066 40.9835 20.9853 40.4074 20.7731L40.4107 20.2175L45.3069 18.4623L45.9769 18.4668ZM42.746 23.1847L42.6969 31.431C42.6929 32.1023 42.4665 32.6101 42.0178 32.9543C42.6169 32.9583 43.0535 32.8166 43.3276 32.5291C43.6125 32.2416 43.757 31.7681 43.7609 31.1083L43.8095 22.9662C43.8139 22.2254 43.6484 21.6572 43.3131 21.2614C42.9778 20.854 42.5378 20.6485 41.9932 20.6448C41.7427 20.6432 41.5411 20.6534 41.3884 20.6755C42.3004 21.1909 42.7529 22.0273 42.746 23.1847ZM44.0175 9.99854C44.4314 10.0013 44.8175 10.1139 45.1757 10.3362C45.5339 10.547 45.8154 10.8382 46.0201 11.21C46.2249 11.5817 46.326 11.9875 46.3233 12.4273C46.3207 12.8671 46.2148 13.2773 46.0055 13.6578C45.7964 14.0268 45.5114 14.32 45.1506 14.5375C44.7898 14.755 44.4025 14.8623 43.9885 14.8596C43.3676 14.8554 42.8353 14.6087 42.3916 14.1196C41.9479 13.6305 41.728 13.0561 41.7319 12.3964C41.7345 11.9682 41.8349 11.5695 42.0332 11.2005C42.2424 10.8199 42.522 10.5267 42.8718 10.3207C43.2326 10.1032 43.6145 9.99583 44.0175 9.99854ZM44.292 10.556C43.6493 10.5516 43.1527 10.7103 42.8022 11.032C42.4517 11.3538 42.2747 11.7982 42.2713 12.3653C42.2681 12.9093 42.4342 13.3618 42.7698 13.7229C43.1054 14.0723 43.6053 14.2667 44.2696 14.3059C43.923 13.9679 43.6688 13.671 43.5069 13.4153C43.3451 13.148 43.2654 12.8118 43.2678 12.4067C43.2723 11.6544 43.6137 11.0375 44.292 10.556Z"/>
<path d="M59.3303 20.6227C59.3321 20.3102 59.1812 20.0487 58.8774 19.8384C58.5737 19.6164 58.204 19.504 57.7683 19.501C56.9513 19.4955 56.2091 19.7452 55.5416 20.2499C54.8741 20.7431 54.347 21.463 53.96 22.4095C53.5841 23.3445 53.3926 24.408 53.3854 25.6001C53.3789 26.6996 53.5908 27.7022 54.0211 28.6079C54.4624 29.5021 55.0519 30.2006 55.7897 30.7032C56.5383 31.2059 57.3538 31.4603 58.2362 31.4662C58.966 31.4711 59.7296 31.3027 60.5268 30.9608C61.335 30.6074 61.9805 30.1546 62.4631 29.6023L63.0301 30.4221C62.1617 31.7357 61.1208 32.7415 59.9075 33.4393C58.705 34.1373 57.4829 34.482 56.2411 34.4737C55.0864 34.4659 53.9828 34.1228 52.9302 33.4444C51.8884 32.7661 51.0551 31.8519 50.4301 30.7019C49.8161 29.5403 49.5132 28.2766 49.5213 26.9109C49.528 25.7998 49.7249 24.7421 50.1122 23.7378C50.4994 22.7334 51.0494 21.8401 51.7622 21.0578C52.4859 20.2641 53.3393 19.6448 54.3223 19.2C55.3054 18.7553 56.3906 18.5369 57.5779 18.5449C58.5365 18.5513 59.407 18.7134 60.1895 19.0312C60.972 19.3374 61.5849 19.764 62.0283 20.311C62.4825 20.858 62.7077 21.4556 62.7039 22.1038C62.7005 22.6709 62.5016 23.1383 62.1073 23.506C61.7129 23.8737 61.2488 24.0558 60.7151 24.0522C60.2249 24.0489 59.8175 23.8668 59.4928 23.5058C59.1791 23.1333 59.0235 22.7387 59.026 22.3221C59.0265 22.241 59.0771 21.981 59.1777 21.5418C59.2785 21.0911 59.3293 20.7847 59.3303 20.6227ZM59.5652 22.3257C59.563 22.696 59.6921 22.9747 59.9524 23.1616C60.2236 23.3487 60.5172 23.4432 60.8331 23.4454C60.9311 23.446 61.1983 23.4015 61.6346 23.3119C60.9601 23.1569 60.6246 22.7842 60.6281 22.1939C60.6284 22.1477 60.651 22.0147 60.6959 21.7951C60.7516 21.5756 60.78 21.3906 60.7809 21.2401C60.7847 20.6035 60.3627 20.1146 59.5151 19.7732C59.7526 20.1336 59.8704 20.4643 59.8687 20.7652C59.8675 20.962 59.8169 21.2278 59.7168 21.5628C59.6168 21.8978 59.5663 22.1521 59.5652 22.3257ZM54.9899 19.6039C53.9416 20.0135 53.0504 20.5804 52.3163 21.3046C51.593 22.0289 51.0378 22.8759 50.6508 23.8456C50.2638 24.8036 50.0673 25.7803 50.0614 26.7757C50.0533 28.1298 50.3511 29.3471 50.9546 30.4276C51.5582 31.5081 52.3539 32.3526 53.3415 32.9611C54.3402 33.5581 55.3515 33.86 56.3754 33.8669C57.8678 33.877 59.2761 33.3656 60.6003 32.3329C59.1704 32.8209 58.0197 33.062 57.1482 33.0562C56.0372 33.0487 55.0202 32.7756 54.0975 32.237C53.1748 31.6984 52.4439 30.9527 51.9049 30C51.3659 29.0472 51.0999 27.9864 51.1069 26.8174C51.115 25.4633 51.4495 24.1692 52.1105 22.9352C52.7824 21.6897 53.7422 20.5793 54.9899 19.6039Z"/>
<path d="M77.1351 29.84L77.7855 30.3825C77.2895 31.3514 76.702 32.1461 76.0229 32.7666C75.3438 33.387 74.5949 33.8449 73.7761 34.1403C72.9682 34.4358 72.1231 34.5806 71.2408 34.5747C70.0425 34.5666 68.9278 34.2524 67.8967 33.632C66.8764 33.0117 66.0701 32.1208 65.4779 30.9594C64.8857 29.798 64.594 28.4823 64.6027 27.0125C64.6096 25.8551 64.7959 24.7684 65.1614 23.7523C65.5378 22.7363 66.0497 21.8427 66.697 21.0716C67.3552 20.3005 68.1104 19.7038 68.9627 19.2813C69.8258 18.8472 70.7421 18.6335 71.7116 18.64C72.692 18.6466 73.622 18.8728 74.5018 19.3185C75.3924 19.7528 76.0969 20.3536 76.6152 21.121C76.9932 21.6791 77.2621 22.2539 77.422 22.8452C77.5928 23.4251 77.7248 24.1262 77.8179 24.9486L67.9488 24.8822C67.9852 26.0862 68.1698 27.1059 68.5025 27.9415C68.8461 28.7772 69.2887 29.4515 69.8303 29.9644C70.3828 30.4774 70.9689 30.8459 71.5885 31.07C72.2081 31.2941 72.8011 31.408 73.3675 31.4118C74.7401 31.4211 75.9959 30.8971 77.1351 29.84ZM74.2789 23.8137L75.4226 23.8214C75.3977 22.5249 75.1528 21.5683 74.6881 20.9518C74.2234 20.3236 73.4416 19.9017 72.3427 19.686C73.0378 20.0263 73.5363 20.4695 73.838 21.0155C74.1399 21.55 74.2875 22.3669 74.2809 23.4664L74.2789 23.8137ZM68.0535 23.7717L73.756 23.8101L73.7594 23.2372C73.7634 22.566 73.6526 21.9691 73.427 21.4468C73.2014 20.9128 72.8879 20.5056 72.4865 20.2251C72.0961 19.9332 71.6449 19.7854 71.1329 19.782C70.305 19.7764 69.6001 20.1652 69.0181 20.9483C68.4361 21.7199 68.1146 22.661 68.0535 23.7717ZM68.221 20.3527C66.1737 22.0519 65.1419 24.2904 65.1253 27.0681C65.1133 29.0819 65.708 30.7353 66.9095 32.0281C68.1219 33.3094 69.5233 33.9555 71.1137 33.9662C72.0396 33.9724 72.9667 33.7819 73.8949 33.3946C74.8341 32.9958 75.6274 32.4051 76.2748 31.6224C75.6077 32.0693 74.9246 32.4351 74.2258 32.7197C73.5378 32.9929 72.7146 33.1262 71.756 33.1198C70.1329 33.1089 68.7803 32.4979 67.6982 31.2869C66.627 30.0759 66.0971 28.504 66.1087 26.5712C66.116 25.3444 66.3023 24.2461 66.6675 23.2763C67.0328 22.3065 67.5506 21.332 68.221 20.3527Z"/>
</mask>
<path d="M2 7.55556C2 4.48731 4.341 2 7.22876 2H76.7712C79.659 2 82 4.48731 82 7.55556V36.4444C82 39.5127 79.659 42 76.7712 42H7.22876C4.34099 42 2 39.5127 2 36.4444V7.55556Z" fill="white"/>
<path d="M7.86152 9.18218L28.6291 9.32201L29.7714 15.059L28.5949 15.0511C27.7651 13.5524 26.8947 12.4528 25.9838 11.7522C25.0729 11.0516 24.2094 10.6291 23.3933 10.4847C22.588 10.3404 21.5319 10.2523 20.2249 10.2203L20.1071 29.9595C20.1026 30.7234 20.2135 31.3086 20.4398 31.7152C20.6662 32.1103 21.0404 32.3848 21.5624 32.5388C22.0843 32.6928 22.8136 32.7903 23.7502 32.8313L23.7445 33.7861L12.2905 33.709L12.2962 32.7542C13.244 32.7374 13.9689 32.6671 14.4707 32.5431C14.9835 32.4077 15.3664 32.1325 15.6194 31.7175C15.8834 31.291 16.0181 30.6264 16.0235 29.7237L16.14 10.1928C14.9635 10.1965 13.9388 10.3169 13.0659 10.5541C12.193 10.7797 11.4613 11.093 10.8707 11.4942C10.28 11.8953 9.78726 12.326 9.39235 12.7863C9.0084 13.2351 8.43772 13.9431 7.6803 14.9102L6.68359 14.9035L7.86152 9.18218ZM27.9369 13.0501L27.2182 10.2674L24.1464 10.2467C24.9726 10.5301 25.6621 10.8935 26.2151 11.337C26.768 11.7806 27.3419 12.3516 27.9369 13.0501ZM17.6108 29.335L17.7126 12.2694C17.7166 11.5981 17.6433 11.0941 17.4928 10.7575C17.3532 10.4209 17.082 10.2339 16.6792 10.1964L16.5615 29.9356C16.5572 30.6532 16.4721 31.2256 16.3061 31.6527C16.1402 32.0798 15.8329 32.4539 15.3844 32.775L15.7438 32.7774C16.539 32.7827 17.0471 32.52 17.2682 31.989C17.4892 31.4581 17.6034 30.5734 17.6108 29.335ZM10.895 10.1575L8.24798 10.1397L7.59313 13.0867C8.1533 12.315 8.64146 11.7454 9.0576 11.3778C9.47382 10.9986 10.0863 10.5919 10.895 10.1575Z" fill="black"/>
<path d="M36.8921 18.4056L36.8172 30.9574C36.814 31.4898 36.8606 31.8952 36.957 32.1737C37.0644 32.4406 37.2593 32.6271 37.5419 32.7332C37.8354 32.8393 38.2817 32.906 38.8806 32.9332L38.8749 33.888L31.2444 33.8366L31.2501 32.8818C31.9256 32.8632 32.3948 32.7217 32.6579 32.4572C32.9318 32.1929 33.0708 31.7193 33.0748 31.0364L33.1224 23.0678C33.1253 22.5701 32.9701 22.1061 32.6568 21.6758C32.3435 21.2454 31.8987 20.9241 31.3226 20.7119L31.326 20.1564L36.2221 18.4011L36.8921 18.4056ZM33.6613 23.1235L33.6121 31.3699C33.6081 32.0412 33.3817 32.5489 32.933 32.8931C33.5322 32.8972 33.9687 32.7554 34.2428 32.4679C34.5277 32.1805 34.6722 31.7069 34.6761 31.0472L34.7247 22.905C34.7291 22.1643 34.5636 21.596 34.2283 21.2002C33.893 20.7929 33.4531 20.5873 32.9084 20.5837C32.6579 20.582 32.4563 20.5922 32.3036 20.6143C33.2156 21.1297 33.6682 21.9661 33.6613 23.1235ZM34.9327 9.93737C35.3467 9.94016 35.7327 10.0527 36.0909 10.275C36.4491 10.4858 36.7306 10.777 36.9353 11.1488C37.1401 11.5206 37.2412 11.9263 37.2385 12.3661C37.2359 12.8059 37.13 13.2161 36.9207 13.5967C36.7116 13.9656 36.4266 14.2589 36.0658 14.4763C35.705 14.6938 35.3177 14.8012 34.9037 14.7984C34.2828 14.7942 33.7505 14.5476 33.3068 14.0585C32.8631 13.5693 32.6432 12.9949 32.6471 12.3352C32.6497 11.907 32.7501 11.5084 32.9484 11.1393C33.1576 10.7588 33.4372 10.4655 33.787 10.2595C34.1478 10.042 34.5297 9.93466 34.9327 9.93737ZM35.2072 10.4948C34.5645 10.4905 34.0679 10.6492 33.7174 10.9709C33.3669 11.2926 33.1899 11.737 33.1866 12.3041C33.1833 12.8481 33.3495 13.3006 33.685 13.6617C34.0206 14.0112 34.5206 14.2055 35.1848 14.2447C34.8382 13.9067 34.584 13.6099 34.4221 13.3541C34.2603 13.0868 34.1806 12.7507 34.1831 12.3456C34.1875 11.5933 34.5289 10.9763 35.2072 10.4948Z" fill="black"/>
<path d="M45.9769 18.4668L45.902 31.0186C45.8988 31.551 45.9454 31.9564 46.0418 32.2348C46.1492 32.5018 46.3441 32.6883 46.6267 32.7943C46.9202 32.9005 47.3664 32.9671 47.9654 32.9943L47.9597 33.9492L40.3292 33.8978L40.3349 32.943C41.0104 32.9244 41.4796 32.7828 41.7426 32.5184C42.0166 32.254 42.1555 31.7804 42.1596 31.0976L42.2071 23.129C42.2101 22.6313 42.0549 22.1673 41.7416 21.7369C41.4282 21.3066 40.9835 20.9853 40.4074 20.7731L40.4107 20.2175L45.3069 18.4623L45.9769 18.4668ZM42.746 23.1847L42.6969 31.431C42.6929 32.1023 42.4665 32.6101 42.0178 32.9543C42.6169 32.9583 43.0535 32.8166 43.3276 32.5291C43.6125 32.2416 43.757 31.7681 43.7609 31.1083L43.8095 22.9662C43.8139 22.2254 43.6484 21.6572 43.3131 21.2614C42.9778 20.854 42.5378 20.6485 41.9932 20.6448C41.7427 20.6432 41.5411 20.6534 41.3884 20.6755C42.3004 21.1909 42.7529 22.0273 42.746 23.1847ZM44.0175 9.99854C44.4314 10.0013 44.8175 10.1139 45.1757 10.3362C45.5339 10.547 45.8154 10.8382 46.0201 11.21C46.2249 11.5817 46.326 11.9875 46.3233 12.4273C46.3207 12.8671 46.2148 13.2773 46.0055 13.6578C45.7964 14.0268 45.5114 14.32 45.1506 14.5375C44.7898 14.755 44.4025 14.8623 43.9885 14.8596C43.3676 14.8554 42.8353 14.6087 42.3916 14.1196C41.9479 13.6305 41.728 13.0561 41.7319 12.3964C41.7345 11.9682 41.8349 11.5695 42.0332 11.2005C42.2424 10.8199 42.522 10.5267 42.8718 10.3207C43.2326 10.1032 43.6145 9.99583 44.0175 9.99854ZM44.292 10.556C43.6493 10.5516 43.1527 10.7103 42.8022 11.032C42.4517 11.3538 42.2747 11.7982 42.2713 12.3653C42.2681 12.9093 42.4342 13.3618 42.7698 13.7229C43.1054 14.0723 43.6053 14.2667 44.2696 14.3059C43.923 13.9679 43.6688 13.671 43.5069 13.4153C43.3451 13.148 43.2654 12.8118 43.2678 12.4067C43.2723 11.6544 43.6137 11.0375 44.292 10.556Z" fill="black"/>
<path d="M59.3303 20.6227C59.3321 20.3102 59.1812 20.0487 58.8774 19.8384C58.5737 19.6164 58.204 19.504 57.7683 19.501C56.9513 19.4955 56.2091 19.7452 55.5416 20.2499C54.8741 20.7431 54.347 21.463 53.96 22.4095C53.5841 23.3445 53.3926 24.408 53.3854 25.6001C53.3789 26.6996 53.5908 27.7022 54.0211 28.6079C54.4624 29.5021 55.0519 30.2006 55.7897 30.7032C56.5383 31.2059 57.3538 31.4603 58.2362 31.4662C58.966 31.4711 59.7296 31.3027 60.5268 30.9608C61.335 30.6074 61.9805 30.1546 62.4631 29.6023L63.0301 30.4221C62.1617 31.7357 61.1208 32.7415 59.9075 33.4393C58.705 34.1373 57.4829 34.482 56.2411 34.4737C55.0864 34.4659 53.9828 34.1228 52.9302 33.4444C51.8884 32.7661 51.0551 31.8519 50.4301 30.7019C49.8161 29.5403 49.5132 28.2766 49.5213 26.9109C49.528 25.7998 49.7249 24.7421 50.1122 23.7378C50.4994 22.7334 51.0494 21.8401 51.7622 21.0578C52.4859 20.2641 53.3393 19.6448 54.3223 19.2C55.3054 18.7553 56.3906 18.5369 57.5779 18.5449C58.5365 18.5513 59.407 18.7134 60.1895 19.0312C60.972 19.3374 61.5849 19.764 62.0283 20.311C62.4825 20.858 62.7077 21.4556 62.7039 22.1038C62.7005 22.6709 62.5016 23.1383 62.1073 23.506C61.7129 23.8737 61.2488 24.0558 60.7151 24.0522C60.2249 24.0489 59.8175 23.8668 59.4928 23.5058C59.1791 23.1333 59.0235 22.7387 59.026 22.3221C59.0265 22.241 59.0771 21.981 59.1777 21.5418C59.2785 21.0911 59.3293 20.7847 59.3303 20.6227ZM59.5652 22.3257C59.563 22.696 59.6921 22.9747 59.9524 23.1616C60.2236 23.3487 60.5172 23.4432 60.8331 23.4454C60.9311 23.446 61.1983 23.4015 61.6346 23.3119C60.9601 23.1569 60.6246 22.7842 60.6281 22.1939C60.6284 22.1477 60.651 22.0147 60.6959 21.7951C60.7516 21.5756 60.78 21.3906 60.7809 21.2401C60.7847 20.6035 60.3627 20.1146 59.5151 19.7732C59.7526 20.1336 59.8704 20.4643 59.8687 20.7652C59.8675 20.962 59.8169 21.2278 59.7168 21.5628C59.6168 21.8978 59.5663 22.1521 59.5652 22.3257ZM54.9899 19.6039C53.9416 20.0135 53.0504 20.5804 52.3163 21.3046C51.593 22.0289 51.0378 22.8759 50.6508 23.8456C50.2638 24.8036 50.0673 25.7803 50.0614 26.7757C50.0533 28.1298 50.3511 29.3471 50.9546 30.4276C51.5582 31.5081 52.3539 32.3526 53.3415 32.9611C54.3402 33.5581 55.3515 33.86 56.3754 33.8669C57.8678 33.877 59.2761 33.3656 60.6003 32.3329C59.1704 32.8209 58.0197 33.062 57.1482 33.0562C56.0372 33.0487 55.0202 32.7756 54.0975 32.237C53.1748 31.6984 52.4439 30.9527 51.9049 30C51.3659 29.0472 51.0999 27.9864 51.1069 26.8174C51.115 25.4633 51.4495 24.1692 52.1105 22.9352C52.7824 21.6897 53.7422 20.5793 54.9899 19.6039Z" fill="black"/>
<path d="M77.1351 29.84L77.7855 30.3825C77.2895 31.3514 76.702 32.1461 76.0229 32.7666C75.3438 33.387 74.5949 33.8449 73.7761 34.1403C72.9682 34.4358 72.1231 34.5806 71.2408 34.5747C70.0425 34.5666 68.9278 34.2524 67.8967 33.632C66.8764 33.0117 66.0701 32.1208 65.4779 30.9594C64.8857 29.798 64.594 28.4823 64.6027 27.0125C64.6096 25.8551 64.7959 24.7684 65.1614 23.7523C65.5378 22.7363 66.0497 21.8427 66.697 21.0716C67.3552 20.3005 68.1104 19.7038 68.9627 19.2813C69.8258 18.8472 70.7421 18.6335 71.7116 18.64C72.692 18.6466 73.622 18.8728 74.5018 19.3185C75.3924 19.7528 76.0969 20.3536 76.6152 21.121C76.9932 21.6791 77.2621 22.2539 77.422 22.8452C77.5928 23.4251 77.7248 24.1262 77.8179 24.9486L67.9488 24.8822C67.9852 26.0862 68.1698 27.1059 68.5025 27.9415C68.8461 28.7772 69.2887 29.4515 69.8303 29.9644C70.3828 30.4774 70.9689 30.8459 71.5885 31.07C72.2081 31.2941 72.8011 31.408 73.3675 31.4118C74.7401 31.4211 75.9959 30.8971 77.1351 29.84ZM74.2789 23.8137L75.4226 23.8214C75.3977 22.5249 75.1528 21.5683 74.6881 20.9518C74.2234 20.3236 73.4416 19.9017 72.3427 19.686C73.0378 20.0263 73.5363 20.4695 73.838 21.0155C74.1399 21.55 74.2875 22.3669 74.2809 23.4664L74.2789 23.8137ZM68.0535 23.7717L73.756 23.8101L73.7594 23.2372C73.7634 22.566 73.6526 21.9691 73.427 21.4468C73.2014 20.9128 72.8879 20.5056 72.4865 20.2251C72.0961 19.9332 71.6449 19.7854 71.1329 19.782C70.305 19.7764 69.6001 20.1652 69.0181 20.9483C68.4361 21.7199 68.1146 22.661 68.0535 23.7717ZM68.221 20.3527C66.1737 22.0519 65.1419 24.2904 65.1253 27.0681C65.1133 29.0819 65.708 30.7353 66.9095 32.0281C68.1219 33.3094 69.5233 33.9555 71.1137 33.9662C72.0396 33.9724 72.9667 33.7819 73.8949 33.3946C74.8341 32.9958 75.6274 32.4051 76.2748 31.6224C75.6077 32.0693 74.9246 32.4351 74.2258 32.7197C73.5378 32.9929 72.7146 33.1262 71.756 33.1198C70.1329 33.1089 68.7803 32.4979 67.6982 31.2869C66.627 30.0759 66.0971 28.504 66.1087 26.5712C66.116 25.3444 66.3023 24.2461 66.6675 23.2763C67.0328 22.3065 67.5506 21.332 68.221 20.3527Z" fill="black"/>
<path d="M2 7.55556C2 4.48731 4.341 2 7.22876 2H76.7712C79.659 2 82 4.48731 82 7.55556V36.4444C82 39.5127 79.659 42 76.7712 42H7.22876C4.34099 42 2 39.5127 2 36.4444V7.55556Z" stroke="black" stroke-width="4" mask="url(#path-1-outside-1_763_264)"/>
<path d="M7.86152 9.18218L28.6291 9.32201L29.7714 15.059L28.5949 15.0511C27.7651 13.5524 26.8947 12.4528 25.9838 11.7522C25.0729 11.0516 24.2094 10.6291 23.3933 10.4847C22.588 10.3404 21.5319 10.2523 20.2249 10.2203L20.1071 29.9595C20.1026 30.7234 20.2135 31.3086 20.4398 31.7152C20.6662 32.1103 21.0404 32.3848 21.5624 32.5388C22.0843 32.6928 22.8136 32.7903 23.7502 32.8313L23.7445 33.7861L12.2905 33.709L12.2962 32.7542C13.244 32.7374 13.9689 32.6671 14.4707 32.5431C14.9835 32.4077 15.3664 32.1325 15.6194 31.7175C15.8834 31.291 16.0181 30.6264 16.0235 29.7237L16.14 10.1928C14.9635 10.1965 13.9388 10.3169 13.0659 10.5541C12.193 10.7797 11.4613 11.093 10.8707 11.4942C10.28 11.8953 9.78726 12.326 9.39235 12.7863C9.0084 13.2351 8.43772 13.9431 7.6803 14.9102L6.68359 14.9035L7.86152 9.18218ZM27.9369 13.0501L27.2182 10.2674L24.1464 10.2467C24.9726 10.5301 25.6621 10.8935 26.2151 11.337C26.768 11.7806 27.3419 12.3516 27.9369 13.0501ZM17.6108 29.335L17.7126 12.2694C17.7166 11.5981 17.6433 11.0941 17.4928 10.7575C17.3532 10.4209 17.082 10.2339 16.6792 10.1964L16.5615 29.9356C16.5572 30.6532 16.4721 31.2256 16.3061 31.6527C16.1402 32.0798 15.8329 32.4539 15.3844 32.775L15.7438 32.7774C16.539 32.7827 17.0471 32.52 17.2682 31.989C17.4892 31.4581 17.6034 30.5734 17.6108 29.335ZM10.895 10.1575L8.24798 10.1397L7.59313 13.0867C8.1533 12.315 8.64146 11.7454 9.0576 11.3778C9.47382 10.9986 10.0863 10.5919 10.895 10.1575Z" stroke="black" stroke-width="4" mask="url(#path-1-outside-1_763_264)"/>
<path d="M36.8921 18.4056L36.8172 30.9574C36.814 31.4898 36.8606 31.8952 36.957 32.1737C37.0644 32.4406 37.2593 32.6271 37.5419 32.7332C37.8354 32.8393 38.2817 32.906 38.8806 32.9332L38.8749 33.888L31.2444 33.8366L31.2501 32.8818C31.9256 32.8632 32.3948 32.7217 32.6579 32.4572C32.9318 32.1929 33.0708 31.7193 33.0748 31.0364L33.1224 23.0678C33.1253 22.5701 32.9701 22.1061 32.6568 21.6758C32.3435 21.2454 31.8987 20.9241 31.3226 20.7119L31.326 20.1564L36.2221 18.4011L36.8921 18.4056ZM33.6613 23.1235L33.6121 31.3699C33.6081 32.0412 33.3817 32.5489 32.933 32.8931C33.5322 32.8972 33.9687 32.7554 34.2428 32.4679C34.5277 32.1805 34.6722 31.7069 34.6761 31.0472L34.7247 22.905C34.7291 22.1643 34.5636 21.596 34.2283 21.2002C33.893 20.7929 33.4531 20.5873 32.9084 20.5837C32.6579 20.582 32.4563 20.5922 32.3036 20.6143C33.2156 21.1297 33.6682 21.9661 33.6613 23.1235ZM34.9327 9.93737C35.3467 9.94016 35.7327 10.0527 36.0909 10.275C36.4491 10.4858 36.7306 10.777 36.9353 11.1488C37.1401 11.5206 37.2412 11.9263 37.2385 12.3661C37.2359 12.8059 37.13 13.2161 36.9207 13.5967C36.7116 13.9656 36.4266 14.2589 36.0658 14.4763C35.705 14.6938 35.3177 14.8012 34.9037 14.7984C34.2828 14.7942 33.7505 14.5476 33.3068 14.0585C32.8631 13.5693 32.6432 12.9949 32.6471 12.3352C32.6497 11.907 32.7501 11.5084 32.9484 11.1393C33.1576 10.7588 33.4372 10.4655 33.787 10.2595C34.1478 10.042 34.5297 9.93466 34.9327 9.93737ZM35.2072 10.4948C34.5645 10.4905 34.0679 10.6492 33.7174 10.9709C33.3669 11.2926 33.1899 11.737 33.1866 12.3041C33.1833 12.8481 33.3495 13.3006 33.685 13.6617C34.0206 14.0112 34.5206 14.2055 35.1848 14.2447C34.8382 13.9067 34.584 13.6099 34.4221 13.3541C34.2603 13.0868 34.1806 12.7507 34.1831 12.3456C34.1875 11.5933 34.5289 10.9763 35.2072 10.4948Z" stroke="black" stroke-width="4" mask="url(#path-1-outside-1_763_264)"/>
<path d="M45.9769 18.4668L45.902 31.0186C45.8988 31.551 45.9454 31.9564 46.0418 32.2348C46.1492 32.5018 46.3441 32.6883 46.6267 32.7943C46.9202 32.9005 47.3664 32.9671 47.9654 32.9943L47.9597 33.9492L40.3292 33.8978L40.3349 32.943C41.0104 32.9244 41.4796 32.7828 41.7426 32.5184C42.0166 32.254 42.1555 31.7804 42.1596 31.0976L42.2071 23.129C42.2101 22.6313 42.0549 22.1673 41.7416 21.7369C41.4282 21.3066 40.9835 20.9853 40.4074 20.7731L40.4107 20.2175L45.3069 18.4623L45.9769 18.4668ZM42.746 23.1847L42.6969 31.431C42.6929 32.1023 42.4665 32.6101 42.0178 32.9543C42.6169 32.9583 43.0535 32.8166 43.3276 32.5291C43.6125 32.2416 43.757 31.7681 43.7609 31.1083L43.8095 22.9662C43.8139 22.2254 43.6484 21.6572 43.3131 21.2614C42.9778 20.854 42.5378 20.6485 41.9932 20.6448C41.7427 20.6432 41.5411 20.6534 41.3884 20.6755C42.3004 21.1909 42.7529 22.0273 42.746 23.1847ZM44.0175 9.99854C44.4314 10.0013 44.8175 10.1139 45.1757 10.3362C45.5339 10.547 45.8154 10.8382 46.0201 11.21C46.2249 11.5817 46.326 11.9875 46.3233 12.4273C46.3207 12.8671 46.2148 13.2773 46.0055 13.6578C45.7964 14.0268 45.5114 14.32 45.1506 14.5375C44.7898 14.755 44.4025 14.8623 43.9885 14.8596C43.3676 14.8554 42.8353 14.6087 42.3916 14.1196C41.9479 13.6305 41.728 13.0561 41.7319 12.3964C41.7345 11.9682 41.8349 11.5695 42.0332 11.2005C42.2424 10.8199 42.522 10.5267 42.8718 10.3207C43.2326 10.1032 43.6145 9.99583 44.0175 9.99854ZM44.292 10.556C43.6493 10.5516 43.1527 10.7103 42.8022 11.032C42.4517 11.3538 42.2747 11.7982 42.2713 12.3653C42.2681 12.9093 42.4342 13.3618 42.7698 13.7229C43.1054 14.0723 43.6053 14.2667 44.2696 14.3059C43.923 13.9679 43.6688 13.671 43.5069 13.4153C43.3451 13.148 43.2654 12.8118 43.2678 12.4067C43.2723 11.6544 43.6137 11.0375 44.292 10.556Z" stroke="black" stroke-width="4" mask="url(#path-1-outside-1_763_264)"/>
<path d="M59.3303 20.6227C59.3321 20.3102 59.1812 20.0487 58.8774 19.8384C58.5737 19.6164 58.204 19.504 57.7683 19.501C56.9513 19.4955 56.2091 19.7452 55.5416 20.2499C54.8741 20.7431 54.347 21.463 53.96 22.4095C53.5841 23.3445 53.3926 24.408 53.3854 25.6001C53.3789 26.6996 53.5908 27.7022 54.0211 28.6079C54.4624 29.5021 55.0519 30.2006 55.7897 30.7032C56.5383 31.2059 57.3538 31.4603 58.2362 31.4662C58.966 31.4711 59.7296 31.3027 60.5268 30.9608C61.335 30.6074 61.9805 30.1546 62.4631 29.6023L63.0301 30.4221C62.1617 31.7357 61.1208 32.7415 59.9075 33.4393C58.705 34.1373 57.4829 34.482 56.2411 34.4737C55.0864 34.4659 53.9828 34.1228 52.9302 33.4444C51.8884 32.7661 51.0551 31.8519 50.4301 30.7019C49.8161 29.5403 49.5132 28.2766 49.5213 26.9109C49.528 25.7998 49.7249 24.7421 50.1122 23.7378C50.4994 22.7334 51.0494 21.8401 51.7622 21.0578C52.4859 20.2641 53.3393 19.6448 54.3223 19.2C55.3054 18.7553 56.3906 18.5369 57.5779 18.5449C58.5365 18.5513 59.407 18.7134 60.1895 19.0312C60.972 19.3374 61.5849 19.764 62.0283 20.311C62.4825 20.858 62.7077 21.4556 62.7039 22.1038C62.7005 22.6709 62.5016 23.1383 62.1073 23.506C61.7129 23.8737 61.2488 24.0558 60.7151 24.0522C60.2249 24.0489 59.8175 23.8668 59.4928 23.5058C59.1791 23.1333 59.0235 22.7387 59.026 22.3221C59.0265 22.241 59.0771 21.981 59.1777 21.5418C59.2785 21.0911 59.3293 20.7847 59.3303 20.6227ZM59.5652 22.3257C59.563 22.696 59.6921 22.9747 59.9524 23.1616C60.2236 23.3487 60.5172 23.4432 60.8331 23.4454C60.9311 23.446 61.1983 23.4015 61.6346 23.3119C60.9601 23.1569 60.6246 22.7842 60.6281 22.1939C60.6284 22.1477 60.651 22.0147 60.6959 21.7951C60.7516 21.5756 60.78 21.3906 60.7809 21.2401C60.7847 20.6035 60.3627 20.1146 59.5151 19.7732C59.7526 20.1336 59.8704 20.4643 59.8687 20.7652C59.8675 20.962 59.8169 21.2278 59.7168 21.5628C59.6168 21.8978 59.5663 22.1521 59.5652 22.3257ZM54.9899 19.6039C53.9416 20.0135 53.0504 20.5804 52.3163 21.3046C51.593 22.0289 51.0378 22.8759 50.6508 23.8456C50.2638 24.8036 50.0673 25.7803 50.0614 26.7757C50.0533 28.1298 50.3511 29.3471 50.9546 30.4276C51.5582 31.5081 52.3539 32.3526 53.3415 32.9611C54.3402 33.5581 55.3515 33.86 56.3754 33.8669C57.8678 33.877 59.2761 33.3656 60.6003 32.3329C59.1704 32.8209 58.0197 33.062 57.1482 33.0562C56.0372 33.0487 55.0202 32.7756 54.0975 32.237C53.1748 31.6984 52.4439 30.9527 51.9049 30C51.3659 29.0472 51.0999 27.9864 51.1069 26.8174C51.115 25.4633 51.4495 24.1692 52.1105 22.9352C52.7824 21.6897 53.7422 20.5793 54.9899 19.6039Z" stroke="black" stroke-width="4" mask="url(#path-1-outside-1_763_264)"/>
<path d="M77.1351 29.84L77.7855 30.3825C77.2895 31.3514 76.702 32.1461 76.0229 32.7666C75.3438 33.387 74.5949 33.8449 73.7761 34.1403C72.9682 34.4358 72.1231 34.5806 71.2408 34.5747C70.0425 34.5666 68.9278 34.2524 67.8967 33.632C66.8764 33.0117 66.0701 32.1208 65.4779 30.9594C64.8857 29.798 64.594 28.4823 64.6027 27.0125C64.6096 25.8551 64.7959 24.7684 65.1614 23.7523C65.5378 22.7363 66.0497 21.8427 66.697 21.0716C67.3552 20.3005 68.1104 19.7038 68.9627 19.2813C69.8258 18.8472 70.7421 18.6335 71.7116 18.64C72.692 18.6466 73.622 18.8728 74.5018 19.3185C75.3924 19.7528 76.0969 20.3536 76.6152 21.121C76.9932 21.6791 77.2621 22.2539 77.422 22.8452C77.5928 23.4251 77.7248 24.1262 77.8179 24.9486L67.9488 24.8822C67.9852 26.0862 68.1698 27.1059 68.5025 27.9415C68.8461 28.7772 69.2887 29.4515 69.8303 29.9644C70.3828 30.4774 70.9689 30.8459 71.5885 31.07C72.2081 31.2941 72.8011 31.408 73.3675 31.4118C74.7401 31.4211 75.9959 30.8971 77.1351 29.84ZM74.2789 23.8137L75.4226 23.8214C75.3977 22.5249 75.1528 21.5683 74.6881 20.9518C74.2234 20.3236 73.4416 19.9017 72.3427 19.686C73.0378 20.0263 73.5363 20.4695 73.838 21.0155C74.1399 21.55 74.2875 22.3669 74.2809 23.4664L74.2789 23.8137ZM68.0535 23.7717L73.756 23.8101L73.7594 23.2372C73.7634 22.566 73.6526 21.9691 73.427 21.4468C73.2014 20.9128 72.8879 20.5056 72.4865 20.2251C72.0961 19.9332 71.6449 19.7854 71.1329 19.782C70.305 19.7764 69.6001 20.1652 69.0181 20.9483C68.4361 21.7199 68.1146 22.661 68.0535 23.7717ZM68.221 20.3527C66.1737 22.0519 65.1419 24.2904 65.1253 27.0681C65.1133 29.0819 65.708 30.7353 66.9095 32.0281C68.1219 33.3094 69.5233 33.9555 71.1137 33.9662C72.0396 33.9724 72.9667 33.7819 73.8949 33.3946C74.8341 32.9958 75.6274 32.4051 76.2748 31.6224C75.6077 32.0693 74.9246 32.4351 74.2258 32.7197C73.5378 32.9929 72.7146 33.1262 71.756 33.1198C70.1329 33.1089 68.7803 32.4979 67.6982 31.2869C66.627 30.0759 66.0971 28.504 66.1087 26.5712C66.116 25.3444 66.3023 24.2461 66.6675 23.2763C67.0328 22.3065 67.5506 21.332 68.221 20.3527Z" stroke="black" stroke-width="4" mask="url(#path-1-outside-1_763_264)"/>
</svg>
